<?xml version="1.0" encoding="utf-8"?>
<!-- Generator: Adobe Illustrator 23.0.3, SVG Export Plug-In . SVG Version: 6.00 Build 0)  -->
<svg version="1.1" id="Capa_1" xmlns="http://www.w3.org/2000/svg" xmlns:xlink="http://www.w3.org/1999/xlink" x="0px" y="0px"
	 viewBox="0 0 512 512" style="enable-background:new 0 0 512 512;" xml:space="preserve">
<style type="text/css">
	.st0{fill:#FFFFFF;stroke:#000000;stroke-miterlimit:10;}
</style>
<rect x="0.5" class="st0" width="511" height="512"/>
<g>
	<path d="M362.9,286.4c-18.8-3.5-40.5-4.8-63.7-3.8c-9.2-9-18.4-18.9-27.2-29.4c-8.8-10.5-16.9-21.2-24.2-31.9
		c4.9-22.7,7.5-44.3,7.3-63.4c-0.5-49.6-18.3-66.8-33.4-72.4c-9.5-3.8-20.4-1.9-27.9,4.9c-12.2,10.4-23.1,32.7-6.6,79.4
		c6.4,18.1,16.1,37.5,28.5,57.1c-3.2,12.5-7.2,25.4-11.9,38.3c-4.7,12.9-9.9,25.3-15.5,36.9c-22.1,7.1-42.1,15.7-58.6,25.4
		c-43,25.4-48.7,49.6-45.9,65.4l0.1,0.5c2,9.2,8.4,16.9,17.1,20.5l0.7,0.3c3.9,1.4,8.4,2.4,13.5,2.4c14.8,0,34.8-8,58.9-36.2
		c12.4-14.5,24.4-32.7,35.2-53.3c12.4-3.5,25.5-6.5,39.1-8.9c13.5-2.4,26.8-4.1,39.7-5c17.2,15.6,34.6,28.6,51.3,38
		c43.3,24.5,67.1,17.5,79.5,7.2c7.9-6.4,11.6-16.5,9.6-26.4C425.5,316.1,411.8,295.5,362.9,286.4z M151.2,360.8
		c-17.8,20.8-31.3,26.7-38.1,25.5c0-6.9,8.2-19.1,31.8-33c6.1-3.6,12.7-7,19.9-10.3C160.3,349.5,155.8,355.5,151.2,360.8z
		 M223.9,180.4c-3.4-7.1-6.3-14-8.6-20.6c-9.1-25.8-7.5-40.4-3.1-45.7c6,3.5,12.5,16.6,12.7,44C225,165.2,224.7,172.6,223.9,180.4z
		 M243,288.7c-5.9,1-11.8,2.2-17.6,3.5c2.3-5.5,4.4-11.1,6.5-16.7c2.1-5.7,4-11.3,5.8-17c3.6,4.7,7.4,9.4,11.3,14
		c3.9,4.6,7.8,9.1,11.8,13.5C254.9,286.7,249,287.6,243,288.7z M354,325.1c-6.2-3.5-12.4-7.5-18.8-12.1c7.8,0.6,15.2,1.6,22.2,2.9
		c26.9,5,38.8,13.7,41.1,20.2C392.5,339.5,377.8,338.5,354,325.1z"/>
	<g>
		<g>
			<path d="M30,28v454h452V28H30z M455.5,455.4h-399V54.6h399V455.4z"/>
		</g>
	</g>
</g>
</svg>
