<?xml version="1.0" encoding="iso-8859-1"?>
<!-- Generator: Adobe Illustrator 19.0.0, SVG Export Plug-In . SVG Version: 6.00 Build 0)  -->
<svg version="1.1" id="Capa_1" xmlns="http://www.w3.org/2000/svg" xmlns:xlink="http://www.w3.org/1999/xlink" x="0px" y="0px"
	 viewBox="0 0 512 512" style="enable-background:new 0 0 512 512;" xml:space="preserve">
<g>
	<g>
		<path d="M0,0v512h512V0H0z M482,482H30V30h452V482z"/>
	</g>
</g>
<g>
	<g>
		<path d="M214.24,115.083c-4.424,5.293-6.027,19.909,3.084,45.719c2.353,6.666,5.24,13.566,8.614,20.625
			c0.757-7.787,1.109-15.258,1.041-22.327C226.713,131.731,220.208,118.544,214.24,115.083z"/>
	</g>
</g>
<g>
	<g>
		<path d="M250.949,273.403c-3.876-4.622-7.634-9.288-11.258-13.978c-1.801,5.647-3.736,11.317-5.799,16.985
			c-2.063,5.667-4.225,11.255-6.475,16.739c5.793-1.264,11.667-2.423,17.609-3.47c5.939-1.047,11.86-1.968,17.733-2.761
			C258.767,282.533,254.827,278.026,250.949,273.403z"/>
	</g>
</g>
<g>
	<g>
		<path d="M359.353,316.856c-6.95-1.295-14.369-2.245-22.168-2.852c6.365,4.549,12.659,8.59,18.815,12.065
			c23.835,13.455,38.507,14.414,44.489,10.976C398.116,330.567,386.26,321.87,359.353,316.856z"/>
	</g>
</g>
<g>
	<g>
		<path d="M60,60v392h392V60H60z M420.739,359.377c-12.362,10.267-36.16,17.274-79.486-7.183
			c-16.673-9.411-34.117-22.386-51.28-38.005c-12.888,0.969-26.22,2.649-39.737,5.032c-13.514,2.383-26.621,5.366-39.062,8.862
			c-10.786,20.547-22.741,38.705-35.189,53.251c-24.144,28.213-44.063,36.236-58.903,36.236c-5.125,0-9.641-0.956-13.52-2.368
			l-0.659-0.257c-8.717-3.596-15.107-11.251-17.088-20.475l-0.106-0.546c-2.792-15.835,2.909-40.043,45.93-65.441
			c16.487-9.733,36.446-18.353,58.553-25.407c5.603-11.644,10.817-24.034,15.511-36.929c4.693-12.895,8.663-25.738,11.855-38.259
			c-12.401-19.614-22.149-39.047-28.522-57.1c-16.511-46.77-5.597-68.998,6.615-79.43c7.577-6.827,18.472-8.755,27.938-4.93
			c15.045,5.623,32.909,22.775,33.391,72.38c0.186,19.145-2.329,40.74-7.273,63.412c7.282,10.674,15.405,21.385,24.226,31.897
			c8.821,10.512,17.958,20.372,27.206,29.397c23.187-0.933,44.89,0.341,63.712,3.849c48.909,9.114,62.636,29.778,65.507,45.588
			C432.324,342.92,428.653,353.006,420.739,359.377z"/>
	</g>
</g>
<g>
	<g>
		<path d="M146.89,354.319c-23.57,13.915-31.737,26.142-31.75,33.04c6.793,1.186,20.254-4.733,38.051-25.53
			c4.597-5.371,9.129-11.321,13.555-17.772C159.624,347.295,152.977,350.725,146.89,354.319z"/>
	</g>
</g>
<g>
</g>
<g>
</g>
<g>
</g>
<g>
</g>
<g>
</g>
<g>
</g>
<g>
</g>
<g>
</g>
<g>
</g>
<g>
</g>
<g>
</g>
<g>
</g>
<g>
</g>
<g>
</g>
<g>
</g>
</svg>
