<?xml version="1.0" encoding="utf-8"?>
<!-- Generator: Adobe Illustrator 23.0.3, SVG Export Plug-In . SVG Version: 6.00 Build 0)  -->
<svg version="1.1" id="Capa_1" xmlns="http://www.w3.org/2000/svg" xmlns:xlink="http://www.w3.org/1999/xlink" x="0px" y="0px"
	 viewBox="0 0 512 512" style="enable-background:new 0 0 512 512;" xml:space="preserve">
<style type="text/css">
	.st0{fill:#FFFFFF;stroke:#000000;stroke-miterlimit:10;}
</style>
<g>
	<rect x="0.2" y="-0.3" class="st0" width="511" height="512"/>
	<g>
		<g>
			<path d="M29.7,27.7v454h452v-454H29.7z M455.2,455.1h-399V54.3h399V455.1z"/>
		</g>
	</g>
</g>
<g>
	<path d="M400.4,291c0-43.4-33.6-64.6-65.5-64.6c-44.8,0-66.5,34.5-66.5,65.8c0,34.8,26.1,64.6,66.2,64.6
		c38.2,0,53.9-23.3,58.6-32.9l-27.6-7.7c-2.1,5.1-11.9,17-29.8,17c-27.6,0-32.9-26.5-33.4-31.4h97.2C400,300.5,400.4,293,400.4,291z
		 M302,280.9c1.5-18.4,15.5-31.2,32.4-31.2c16.4,0,30.9,11.1,32.9,31.2H302z"/>
	<path d="M105,354.3h34.1l15.6-42.5h59.5l15.8,42.5h34.1l-64.8-170.4H170L105,354.3z M208.2,288.6h-48l24.5-67L208.2,288.6z"/>
	<polygon points="57.1,454.3 57.1,63.8 55.7,63.8 55.7,455.8 447.7,455.8 447.7,454.3 	"/>
</g>
</svg>
