<?xml version="1.0" encoding="utf-8"?>
<!-- Generator: Adobe Illustrator 23.0.3, SVG Export Plug-In . SVG Version: 6.00 Build 0)  -->
<svg version="1.1" xmlns="http://www.w3.org/2000/svg" xmlns:xlink="http://www.w3.org/1999/xlink" x="0px" y="0px"
	 viewBox="0 0 141.7 141.7" style="enable-background:new 0 0 141.7 141.7;" xml:space="preserve">
<style type="text/css">
	.st0{fill:#FFFFFF;stroke:#000000;stroke-miterlimit:10;}
</style>
<g id="Layer_1">
	<g id="code_x5F_html5">
	</g>
	<g>
		<path class="st0" d="M128.6,114.3c0,8.4-6.8,15.2-15.2,15.2H30.4c-8.4,0-15.2-6.8-15.2-15.2V31.4c0-8.4,6.8-15.2,15.2-15.2h82.9
			c8.4,0,15.2,6.8,15.2,15.2V114.3z"/>
		<g>
			<path class="st0" d="M42.4,37.4h33.1c18.7,0,22.8,13.3,22.8,18.6c0,10.6-6,13.4-9,14.6c4.6,1.3,12,5.2,12,18.7
				c0,3.9-0.5,19.1-24.9,19.1h-34V37.4z M60.8,65.1h10.1c7.5,0,8.2-4.9,8.2-7.2c0-2.2-1.4-6.9-8.1-6.9H60.8V65.1z M60.8,96h11.6
				c9.6,0,10.2-6.8,10.2-9.1c0-2.2-0.8-9-10.2-9H60.8V96z"/>
		</g>
	</g>
</g>
<g id="Layer_2">
</g>
</svg>
