<?xml version="1.0" encoding="utf-8"?>
<!-- Generator: Adobe Illustrator 23.0.3, SVG Export Plug-In . SVG Version: 6.00 Build 0)  -->
<svg version="1.1" id="Layer_1" xmlns="http://www.w3.org/2000/svg" xmlns:xlink="http://www.w3.org/1999/xlink" x="0px" y="0px"
	 viewBox="0 0 531 552" style="enable-background:new 0 0 531 552;" xml:space="preserve">
<style type="text/css">
	.st0{fill:#FFFFFF;stroke:#000000;stroke-width:4.0288;stroke-miterlimit:10;}
</style>
<g>
	<path class="st0" d="M265.5,39C131.1,39,22.2,148,22.2,282.3c0,107.5,69.7,198.7,166.4,230.9c12.2,2.3,16.6-5.3,16.6-11.7
		c0-5.8-0.2-25-0.3-45.3c-67.7,14.7-82-28.7-82-28.7c-11.1-28.1-27-35.6-27-35.6c-22.1-15.1,1.7-14.8,1.7-14.8
		c24.4,1.7,37.3,25.1,37.3,25.1c21.7,37.2,56.9,26.4,70.8,20.2c2.2-15.7,8.5-26.5,15.4-32.5c-54-6.1-110.8-27-110.8-120.2
		c0-26.6,9.5-48.3,25.1-65.3c-2.5-6.1-10.9-30.9,2.4-64.4c0,0,20.4-6.5,66.9,24.9c19.4-5.4,40.2-8.1,60.9-8.2
		c20.7,0.1,41.5,2.8,60.9,8.2c46.4-31.5,66.8-24.9,66.8-24.9c13.2,33.5,4.9,58.3,2.4,64.4c15.6,17,25,38.7,25,65.3
		c0,93.4-56.9,114-111.1,120c8.7,7.6,16.5,22.4,16.5,45.1c0,32.6-0.3,58.8-0.3,66.8c0,6.5,4.4,14.1,16.7,11.7
		c96.6-32.2,166.2-123.4,166.2-230.8C508.8,148,399.8,39,265.5,39z"/>
	<path class="st0" d="M114.3,388.4c-0.5,1.2-2.4,1.6-4.2,0.7c-1.8-0.8-2.8-2.4-2.2-3.7c0.5-1.2,2.4-1.6,4.2-0.8
		C113.9,385.5,115,387.1,114.3,388.4L114.3,388.4z M111.4,386.1"/>
	<path class="st0" d="M124.2,399.3c-1.2,1.1-3.4,0.6-5-1.1c-1.6-1.7-1.9-4-0.7-5.1c1.2-1.1,3.4-0.6,5,1.1
		C125.1,396,125.4,398.3,124.2,399.3L124.2,399.3z M121.9,396.9"/>
	<path class="st0" d="M133.8,413.4c-1.5,1-3.9,0.1-5.4-2.1c-1.5-2.2-1.5-4.8,0-5.8c1.5-1,3.9-0.1,5.4,2
		C135.3,409.7,135.3,412.3,133.8,413.4L133.8,413.4z M133.8,413.4"/>
	<path class="st0" d="M146.9,426.9c-1.3,1.5-4.2,1.1-6.3-0.9c-2.1-2-2.7-4.7-1.4-6.2c1.4-1.5,4.2-1.1,6.3,0.9
		C147.7,422.6,148.4,425.4,146.9,426.9L146.9,426.9z M146.9,426.9"/>
	<path class="st0" d="M165.1,434.8c-0.6,1.9-3.3,2.8-6.1,2c-2.8-0.8-4.6-3.1-4-5c0.6-1.9,3.3-2.8,6.1-2
		C163.8,430.6,165.6,432.8,165.1,434.8L165.1,434.8z M165.1,434.8"/>
	<path class="st0" d="M185,436.2c0.1,2-2.3,3.7-5.2,3.7c-2.9,0.1-5.3-1.6-5.3-3.5c0-2,2.3-3.7,5.2-3.7
		C182.6,432.6,185,434.2,185,436.2L185,436.2z M185,436.2"/>
	<path class="st0" d="M203.5,433.1c0.3,2-1.7,4-4.5,4.5c-2.8,0.5-5.4-0.7-5.8-2.6c-0.4-2,1.7-4,4.5-4.5
		C200.6,429.9,203.1,431.1,203.5,433.1L203.5,433.1z M203.5,433.1"/>
</g>
</svg>
