<?xml version="1.0" encoding="utf-8"?>
<!-- Generator: Adobe Illustrator 23.0.3, SVG Export Plug-In . SVG Version: 6.00 Build 0)  -->
<svg version="1.1" id="Capa_1" xmlns="http://www.w3.org/2000/svg" xmlns:xlink="http://www.w3.org/1999/xlink" x="0px" y="0px"
	 viewBox="0 0 512 512" style="enable-background:new 0 0 512 512;" xml:space="preserve">
<style type="text/css">
	.st0{fill:#FFFFFF;stroke:#000000;stroke-miterlimit:10;}
</style>
<g>
	<rect x="1.3" y="-1" class="st0" width="511" height="512"/>
	<g>
		<g>
			<path d="M30.8,27v454h452V27H30.8z M456.3,454.4h-399V53.6h399V454.4z"/>
		</g>
	</g>
</g>
<g>
	<rect x="159.5" y="162.6" width="33.1" height="170.4"/>
	<path d="M354.1,305.6c-2.7-0.2-7.4-6.2-7.4-9.6V157.8h-32.2v71.5c-4.2-7.2-17.2-24.2-42.5-24.2c-29.8,0-56.2,25.9-56.2,65
		c0,34.5,22.8,65.3,59.8,65.3c25.2,0,39-16.2,43.7-24.2c0,0-2.1,23.5,21.1,23.5c3.5,0,8.1-0.6,13.7-1.7h0V305.6z M314.5,286.9
		c-1.1,3-10.3,21.1-30.5,21.1c-21.3,0-34.8-18.9-34.8-37.2c0-16.7,11-38.4,32.9-38.4c19.6,0,31.1,21,32.4,24.5V286.9z"/>
</g>
</svg>
