<?xml version="1.0" encoding="utf-8"?>
<!-- Generator: Adobe Illustrator 23.0.3, SVG Export Plug-In . SVG Version: 6.00 Build 0)  -->
<svg version="1.1" id="Capa_1" xmlns="http://www.w3.org/2000/svg" xmlns:xlink="http://www.w3.org/1999/xlink" x="0px" y="0px"
	 viewBox="0 0 512 512" style="enable-background:new 0 0 512 512;" xml:space="preserve">
<style type="text/css">
	.st0{fill:#FFFFFF;stroke:#000000;stroke-miterlimit:10;}
</style>
<g>
	<rect x="0.9" y="0" class="st0" width="511" height="512"/>
</g>
<g>
	<g>
		<path d="M0.4,0v512h512V0H0.4z M482.4,482h-452V30h452V482z"/>
	</g>
</g>
<g>
	<path d="M330.1,264.6c-4.6-1.1-24.7-4.4-24.7-15.8c0-9.2,7.5-14.2,19.2-14.2c15.8,0,30.1,9.1,36.5,13.9l13-19.4
		c-6.9-6.1-21.6-17.3-49.2-17.3c-26.3,0-49.4,14.9-49.4,41.5c0,27.6,36.7,32.8,44.9,35c9.8,2.7,27.6,6.2,27.6,17
		c0,8.8-8.4,13.9-20.6,13.9c-18.8,0-36.5-11.1-44.2-16.6l-12,20.2c7.2,6.2,27.9,19.4,56.9,19.4c15.7,0,50.9-4.9,50.9-39.8
		C378.8,273,338.7,266.9,330.1,264.6z"/>
	<path d="M207.5,282.9c29.5,0,53-25.7,53-56.6c0-26.2-21.2-56.6-54.2-56.6H134V340h33.1v-57.1H207.5z M167.1,253.8v-55.2h37
		c14.1,0,22.8,13.2,22.8,27.6c0,16.8-9.7,27.6-21.4,27.6H167.1z"/>
</g>
</svg>
