<?xml version="1.0" encoding="utf-8"?>
<!-- Generator: Adobe Illustrator 23.0.3, SVG Export Plug-In . SVG Version: 6.00 Build 0)  -->
<svg version="1.1" id="Capa_1" xmlns="http://www.w3.org/2000/svg" xmlns:xlink="http://www.w3.org/1999/xlink" x="0px" y="0px"
	 viewBox="0 0 512 512" style="enable-background:new 0 0 512 512;" xml:space="preserve">
<style type="text/css">
	.st0{fill:#FFFFFF;stroke:#000000;stroke-miterlimit:10;}
</style>
<g>
	<rect x="0.5" class="st0" width="511" height="512"/>
</g>
<g>
	<g>
		<path d="M21,29v454h470V29H21z M463.5,456.4H48.5V55.6h414.9V456.4z"/>
	</g>
</g>
<g>
	<path d="M218.8,284.1c29.5,0,53-25.7,53-56.6c0-26.2-21.2-56.6-54.2-56.6h-72.2v170.4h33.1v-57.1L218.8,284.1L218.8,284.1z
		 M178.5,199.8h37c14.1,0,22.8,13.2,22.8,27.6c0,16.8-9.7,27.6-21.4,27.6h-38.4V199.8z"/>
	<path d="M321.3,242.3v-26.9h-29.5v125.8H324v-76.1c3.4-7.2,14.4-21.8,42.7-21.8V214C337.6,210.9,323.5,238,321.3,242.3z"/>
</g>
</svg>
